<svg width="463" height="127" viewBox="0 0 463 127" fill="none" xmlns="http://www.w3.org/2000/svg">
<circle cx="60" cy="66.2188" r="60" fill="#5053FF"/>
<path d="M73.6705 96.7754C73.059 97.4269 72.3115 97.7165 71.4282 97.5717C70.6128 97.4269 69.9333 96.9202 69.5256 96.1238L67.4872 91.9972C66.5359 90.115 64.7013 89.029 62.7308 89.2462C60.7603 89.4634 59.1295 90.8389 58.518 92.866L57.091 97.7165C57.091 97.7889 57.0231 97.8613 56.8872 97.8613C56.7513 97.8613 56.6833 97.7889 56.6833 97.7165L56.0718 96.4858C55.3244 94.9655 53.9654 94.0243 52.4026 93.9519C50.8397 93.8795 49.3449 94.7483 48.4615 96.1962L46.491 98.6577C45.7436 99.5988 45.8795 100.974 46.6949 101.698C47.1026 102.06 47.5782 102.205 47.9859 102.205C48.5295 102.205 49.141 101.915 49.5487 101.409L51.5872 98.8748C51.6551 98.8024 51.7231 98.6577 51.791 98.5853C51.9269 98.3681 52.0628 98.2957 52.1308 98.2957C52.1308 98.2957 52.1987 98.2957 52.2667 98.4405L52.8782 99.6712C53.6936 101.336 55.3244 102.35 57.091 102.205C58.8577 102.06 60.3526 100.83 60.8282 99.0196L62.2551 94.1691C62.391 93.6623 62.7308 93.5899 62.9346 93.5899C63.1385 93.5899 63.4782 93.5899 63.75 94.0243L65.7885 98.1509C66.8077 100.178 68.5744 101.481 70.6808 101.843C72.7872 102.205 74.8936 101.481 76.3885 99.816C77.2038 98.9472 77.2038 97.5717 76.3885 96.7754C75.7769 95.9066 74.4859 95.9066 73.6705 96.7754Z" fill="white"/>
<path d="M38.5 102.219C39.8807 102.219 41 101.099 41 99.7188C41 98.338 39.8807 97.2188 38.5 97.2188C37.1193 97.2188 36 98.338 36 99.7188C36 101.099 37.1193 102.219 38.5 102.219Z" fill="white"/>
<path d="M67.0414 32.1817L71.0071 36.1373C69.1332 36.8536 66.5355 37.6522 63.557 37.8997L63.5541 37.9C58.858 38.3195 52.6548 37.268 50.2992 36.8407L50.2968 36.8403C50.2787 36.8371 50.2607 36.834 50.2426 36.8308C49.6767 36.731 49.1309 36.6348 48.6289 36.6749C48.0724 36.7193 47.5757 36.9273 47.1045 37.3974C46.8727 37.6286 46.5937 37.978 46.487 38.3765L35.9586 68.8882L35.9584 68.8881L35.9544 68.9011C35.5275 70.2636 36.2063 71.7499 37.6133 72.191C37.8399 72.2661 38.1807 72.3558 38.4702 72.3558C39.5157 72.3558 40.5577 71.6694 40.9113 70.6151C40.9116 70.6142 40.9119 70.6134 40.9122 70.6126L50.7446 42.1708C53.7777 42.6787 59.4371 43.5162 64.0655 43.1028L64.0685 43.1025C67.7257 42.7518 71.4444 41.7194 75.0268 40.0758L79.2455 44.2839C77.6756 47.3714 76.7162 50.6651 76.4352 54.1621C75.9519 59.1283 76.7923 65.3862 77.3012 68.5825L42.0383 80.7067L61.1546 61.6389C62.1832 60.6129 62.2075 58.9569 61.1473 57.9796C60.1189 56.9614 58.4665 56.9397 57.4896 57.9936L30.5306 84.8843C29.8679 85.4683 29.5267 86.2324 29.5267 87.0761C29.5267 88.4876 30.6913 89.8433 32.1648 89.6791C32.512 89.6744 32.7776 89.586 32.9838 89.5174L32.9965 89.5132L32.9965 89.5132L33.002 89.5113L80.9585 72.9039C81.357 72.7976 81.7069 72.5198 81.9387 72.2886C82.3981 71.8304 82.6329 71.3588 82.6894 70.784C82.7417 70.2517 82.6365 69.6527 82.4971 68.9571C82.0691 66.3937 81.0856 59.7108 81.5066 54.7409L81.5067 54.7404C81.6957 52.4779 82.2266 50.3284 83.049 48.2907L87.1068 52.3382L87.148 52.3793L87.198 52.4092C87.5958 52.6473 88.1791 52.9024 88.8646 52.9024C89.5641 52.9024 90.1779 52.6364 90.6864 52.1324C91.7354 51.1652 91.7356 49.5049 90.6871 48.5375L70.6931 28.5232L70.6925 28.5226C69.6645 27.4972 68.0064 27.4731 67.0272 28.5299C66.0058 29.5563 65.9841 31.2066 67.0414 32.1817Z" fill="white" stroke="white" stroke-width="0.946667"/>
<path d="M170.27 94V37.484H150.958V27.7333H201.794V37.484H182.388V94H170.27ZM205.961 114.827L216.848 90.876H214.008L195.737 47.0453H208.896L222.054 80.084L235.781 47.0453H248.656L218.836 114.827H205.961ZM250.897 114.827V47.0453H261.689L263.015 53.7667C264.529 51.684 266.517 49.8538 268.979 48.276C271.503 46.6982 274.753 45.9093 278.729 45.9093C283.147 45.9093 287.092 46.9822 290.563 49.128C294.034 51.2738 296.779 54.2084 298.799 57.932C300.818 61.6556 301.828 65.884 301.828 70.6173C301.828 75.3507 300.818 79.5791 298.799 83.3027C296.779 86.9631 294.034 89.8662 290.563 92.012C287.092 94.0947 283.147 95.136 278.729 95.136C275.195 95.136 272.103 94.4733 269.452 93.148C266.801 91.8227 264.656 89.9609 263.015 87.5627V114.827H250.897ZM276.173 84.5333C280.023 84.5333 283.21 83.2396 285.735 80.652C288.259 78.0644 289.521 74.7196 289.521 70.6173C289.521 66.5151 288.259 63.1387 285.735 60.488C283.21 57.8373 280.023 56.512 276.173 56.512C272.261 56.512 269.042 57.8373 266.517 60.488C264.056 63.0756 262.825 66.4204 262.825 70.5227C262.825 74.6249 264.056 78.0013 266.517 80.652C269.042 83.2396 272.261 84.5333 276.173 84.5333ZM329.787 95.136C325.054 95.136 320.857 94.1262 317.197 92.1067C313.536 90.0871 310.665 87.2471 308.582 83.5867C306.499 79.9262 305.458 75.6978 305.458 70.9013C305.458 66.0418 306.468 61.7187 308.487 57.932C310.57 54.1453 313.41 51.2107 317.007 49.128C320.668 46.9822 324.959 45.9093 329.882 45.9093C334.489 45.9093 338.56 46.9191 342.094 48.9387C345.628 50.9582 348.374 53.7351 350.33 57.2693C352.35 60.7404 353.359 64.6218 353.359 68.9133C353.359 69.6076 353.328 70.3333 353.265 71.0907C353.265 71.848 353.233 72.6369 353.17 73.4573H317.481C317.733 77.1178 318.995 79.9893 321.267 82.072C323.602 84.1547 326.411 85.196 329.693 85.196C332.154 85.196 334.205 84.6596 335.846 83.5867C337.55 82.4507 338.812 80.9991 339.633 79.232H351.939C351.056 82.1982 349.573 84.912 347.49 87.3733C345.47 89.7716 342.946 91.6649 339.917 93.0533C336.95 94.4418 333.574 95.136 329.787 95.136ZM329.882 55.7547C326.916 55.7547 324.297 56.6067 322.025 58.3107C319.753 59.9516 318.301 62.476 317.67 65.884H341.053C340.863 62.7916 339.727 60.3302 337.645 58.5C335.562 56.6698 332.974 55.7547 329.882 55.7547ZM360.048 94V57.1747H353.611V47.0453H360.048V41.5547C360.048 35.8747 361.468 31.8356 364.308 29.4373C367.211 27.0391 371.124 25.84 376.047 25.84H381.253V36.1587H377.94C375.857 36.1587 374.374 36.5689 373.491 37.3893C372.607 38.2098 372.165 39.5982 372.165 41.5547V47.0453H382.295V57.1747H372.165V94H360.048ZM391.856 94V25.84H403.974V94H391.856ZM433.241 95.136C428.697 95.136 424.595 94.0947 420.934 92.012C417.337 89.9293 414.465 87.0578 412.32 83.3973C410.237 79.6738 409.196 75.3822 409.196 70.5227C409.196 65.6631 410.269 61.4031 412.414 57.7427C414.56 54.0191 417.432 51.116 421.029 49.0333C424.689 46.9507 428.792 45.9093 433.336 45.9093C437.817 45.9093 441.856 46.9507 445.453 49.0333C449.113 51.116 451.985 54.0191 454.068 57.7427C456.213 61.4031 457.286 65.6631 457.286 70.5227C457.286 75.3822 456.213 79.6738 454.068 83.3973C451.985 87.0578 449.113 89.9293 445.453 92.012C441.793 94.0947 437.722 95.136 433.241 95.136ZM433.241 84.628C436.397 84.628 439.142 83.4604 441.477 81.1253C443.812 78.7271 444.98 75.1929 444.98 70.5227C444.98 65.8524 443.812 62.3498 441.477 60.0147C439.142 57.6164 436.428 56.4173 433.336 56.4173C430.117 56.4173 427.34 57.6164 425.005 60.0147C422.733 62.3498 421.597 65.8524 421.597 70.5227C421.597 75.1929 422.733 78.7271 425.005 81.1253C427.34 83.4604 430.085 84.628 433.241 84.628Z" fill="black"/>
</svg>
